<?xml version="1.0" standalone="no"?>
<!DOCTYPE svg PUBLIC "-//W3C//DTD SVG 20010904//EN"
 "http://www.w3.org/TR/2001/REC-SVG-20010904/DTD/svg10.dtd">
<svg version="1.0" xmlns="http://www.w3.org/2000/svg"
 width="935.000000pt" height="584.000000pt" viewBox="0 0 935.000000 584.000000"
 preserveAspectRatio="xMidYMid meet">
<metadata>
Created by potrace 1.11, written by Peter Selinger 2001-2013
</metadata>
<g transform="translate(0.000000,584.000000) scale(0.100000,-0.100000)"
fill="#000000" stroke="none">
<path d="M0 2920 l0 -2920 4675 0 4675 0 0 2920 0 2920 -4675 0 -4675 0 0
-2920z m4905 2447 c32 1 36 -1 20 -8 -15 -7 -10 -8 16 -4 75 11 309 -90 454
-197 159 -117 340 -327 461 -536 89 -155 221 -467 237 -564 2 -13 6 -30 9 -38
22 -59 63 -243 74 -335 2 -16 11 -82 19 -145 85 -657 -5 -1332 -255 -1916
-125 -291 -320 -586 -506 -764 -55 -52 -54 -51 14 25 381 428 617 986 708
1676 35 265 30 726 -11 1007 -81 552 -285 1043 -570 1367 -35 40 -15 10 71
-105 134 -180 241 -383 322 -610 42 -118 93 -286 90 -298 -1 -4 2 -14 6 -22
11 -26 45 -214 39 -222 -2 -5 1 -15 7 -23 7 -9 9 -26 5 -45 -4 -17 -2 -30 3
-30 5 0 9 -19 8 -42 0 -24 6 -119 13 -213 36 -441 -21 -965 -148 -1376 -142
-457 -354 -830 -627 -1103 -44 -43 -106 -99 -139 -123 -33 -25 -46 -33 -30
-18 202 178 282 269 409 458 263 394 426 880 492 1462 16 146 20 573 6 710 -4
40 -7 -77 -7 -270 0 -271 -4 -368 -18 -480 -39 -297 -107 -577 -201 -824 -167
-439 -379 -761 -659 -1003 -37 -32 -71 -58 -75 -58 -4 1 11 15 33 32 70 55
224 218 295 313 74 99 141 204 208 327 68 124 41 90 -39 -50 -161 -282 -367
-512 -584 -653 -78 -51 -123 -69 -146 -61 -20 8 -18 11 27 37 160 92 349 264
473 429 290 386 470 875 537 1461 31 273 17 693 -30 900 -9 39 -14 76 -11 83
3 7 0 10 -5 7 -5 -3 -9 7 -8 22 0 15 -8 60 -17 98 -10 39 -19 87 -21 108 -1
20 -6 43 -10 49 -5 7 -9 19 -10 28 -6 39 -38 158 -51 188 -8 18 -12 41 -8 50
3 9 3 13 -1 9 -4 -4 -22 37 -40 90 -17 54 -53 147 -78 208 -41 95 -61 136
-127 256 -39 70 -79 131 -126 195 -29 40 -53 77 -53 83 0 6 -5 11 -12 11 -6 0
-8 3 -5 6 9 9 -78 93 -183 178 -47 38 -84 73 -82 79 2 5 -4 7 -13 3 -9 -3 -13
-2 -10 4 3 5 -34 29 -83 54 -48 24 -94 51 -101 60 -7 8 -29 18 -50 22 -60 11
-72 26 -16 20 47 -5 48 -4 15 5 -19 6 -61 15 -95 19 -45 7 -35 8 45 3 58 -3
123 -6 145 -6z m-309 -8 c128 -22 272 -79 388 -154 110 -70 254 -205 335 -314
41 -55 60 -77 46 -52 -5 9 -4 12 3 7 6 -4 9 -12 6 -19 -2 -7 9 -27 25 -45 17
-17 27 -32 23 -32 -3 0 3 -7 15 -15 14 -10 20 -21 16 -32 -4 -11 -3 -14 6 -9
6 4 10 4 9 -1 -4 -17 14 -53 24 -47 7 4 8 2 4 -4 -6 -11 28 -92 39 -92 3 0 -1
13 -10 30 -8 16 -15 33 -15 37 1 4 9 -8 19 -27 10 -19 17 -40 14 -46 -2 -7 10
-38 27 -70 17 -33 28 -50 25 -39 -16 48 -14 47 14 -10 34 -69 40 -97 10 -45
-23 40 -21 32 32 -109 93 -249 191 -709 176 -824 -5 -31 -4 -37 4 -22 6 14 8
-10 5 -75 -3 -59 -2 -85 3 -70 9 24 8 -21 -4 -364 -13 -381 -79 -754 -191
-1086 -25 -74 -52 -148 -59 -165 -7 -16 -30 -68 -50 -115 -64 -149 -212 -411
-285 -503 -109 -138 -265 -307 -283 -307 -5 0 21 30 58 68 380 381 641 1000
742 1757 25 191 25 745 0 940 -51 388 -139 704 -277 993 -38 78 -71 142 -74
142 -4 0 16 -44 43 -97 154 -309 253 -670 297 -1088 26 -250 11 -668 -37
-1000 -81 -563 -286 -1087 -572 -1464 -72 -96 -243 -273 -301 -313 -17 -12 1
7 39 43 85 78 169 167 222 234 198 254 363 592 472 970 40 139 101 421 100
460 0 11 -15 -52 -33 -140 -105 -510 -281 -917 -550 -1269 -53 -69 -178 -206
-189 -206 -5 0 -3 8 4 18 13 15 12 16 -3 4 -10 -8 -16 -19 -15 -25 1 -6 -4
-11 -10 -12 -7 0 -12 -3 -10 -6 4 -13 -37 -50 -50 -44 -8 2 -11 1 -8 -4 7 -13
-121 -103 -148 -105 -12 -1 -21 -8 -19 -15 1 -7 -2 -10 -7 -6 -6 3 -39 -8 -75
-24 -166 -78 -377 -109 -531 -78 l-70 14 122 -5 c185 -7 319 21 477 100 82 41
169 100 157 107 -5 3 -2 13 7 21 14 13 15 12 9 -3 -9 -24 0 -21 37 9 57 48
166 154 157 154 -5 0 -12 7 -15 16 -4 10 8 33 33 63 189 226 349 526 462 863
69 208 153 553 179 739 20 138 40 418 40 553 0 139 8 167 22 78 15 -99 -4 200
-22 345 -31 244 -79 453 -155 673 -50 145 -192 428 -264 528 -33 45 -59 82
-57 82 5 0 -64 78 -101 116 -18 18 -33 37 -33 42 0 6 -8 13 -18 16 -10 3 -35
24 -56 46 -20 22 -51 47 -67 57 -16 10 -29 21 -29 26 0 4 -4 5 -10 2 -5 -3
-10 -2 -10 3 0 5 -21 20 -47 33 -27 13 -50 26 -53 29 -14 14 -83 39 -92 34 -7
-5 -8 -2 -3 6 6 9 2 10 -16 5 -13 -4 -21 -4 -16 1 15 16 -109 45 -220 51 -203
11 -427 -42 -554 -131 -31 -21 -56 -22 -39 -2 6 8 19 12 27 9 10 -4 14 -2 10
4 -17 27 216 143 356 178 138 33 305 44 413 24z m-112 -133 c176 -48 316 -134
471 -290 294 -296 494 -758 579 -1336 56 -385 45 -886 -29 -1288 -10 -51 -19
-91 -22 -89 -2 3 5 57 17 122 11 65 20 129 19 144 0 14 -11 -37 -25 -114 -115
-667 -374 -1212 -737 -1555 -61 -57 -177 -148 -177 -138 0 2 39 36 88 75 318
262 583 731 721 1279 33 132 82 383 80 417 0 12 -12 -38 -25 -111 -113 -625
-363 -1159 -697 -1485 -60 -58 -106 -96 -114 -92 -8 2 -12 1 -8 -4 8 -13 -72
-74 -86 -65 -7 4 -9 3 -6 -3 8 -14 -20 -28 -61 -32 -7 0 -11 -5 -8 -9 6 -11
-16 -21 -119 -56 -355 -118 -661 -48 -925 212 -74 73 -74 73 -10 17 313 -276
629 -326 990 -157 41 19 77 36 80 36 3 1 32 21 65 45 344 254 599 663 755
1214 194 683 192 1410 -7 2066 -48 158 -170 437 -219 497 -8 10 3 -15 24 -56
157 -298 267 -694 302 -1093 13 -152 13 -519 0 -673 -40 -462 -153 -882 -333
-1239 -51 -102 -166 -292 -201 -332 -6 -7 -49 -56 -96 -110 -133 -154 -275
-270 -418 -342 -58 -30 -65 -21 -8 10 25 13 43 25 41 27 -2 3 -21 -5 -41 -17
-82 -49 -244 -91 -351 -91 -264 0 -513 135 -709 385 -27 34 -11 22 51 -41 149
-150 266 -228 419 -279 140 -47 318 -44 462 6 90 32 270 129 239 129 -6 0 -19
-6 -30 -14 -175 -122 -438 -171 -636 -118 -150 40 -291 130 -416 263 -50 53
-74 91 -35 56 10 -10 22 -14 27 -10 4 5 5 3 2 -3 -4 -7 0 -17 8 -24 13 -11 14
-10 9 4 -8 21 22 22 34 0 5 -9 12 -15 16 -14 4 1 39 -21 77 -49 251 -187 514
-218 785 -91 120 56 197 112 309 224 326 328 547 845 641 1502 21 151 30 616
15 781 -39 416 -153 799 -322 1083 -47 79 -154 212 -222 276 -172 164 -343
238 -547 237 -106 0 -181 -14 -288 -54 -69 -25 -88 -24 -37 3 68 36 176 68
264 78 335 38 664 -183 882 -593 27 -50 49 -87 49 -82 0 16 -86 171 -135 244
-237 355 -561 522 -886 456 -81 -16 -226 -70 -273 -100 -12 -8 -25 -12 -29 -9
-4 4 -23 -5 -44 -20 l-38 -27 37 33 c55 50 192 125 283 154 44 14 119 30 168
36 159 19 342 -28 492 -127 86 -57 228 -197 292 -287 30 -43 57 -78 59 -78 16
0 -115 167 -191 245 -130 132 -249 208 -405 256 -62 19 -97 23 -200 23 -112 0
-135 -3 -225 -32 -82 -26 -266 -116 -285 -141 -8 -10 -129 -91 -136 -91 -14 0
105 108 169 153 85 61 231 129 322 151 142 35 335 30 470 -11 173 -53 358
-194 494 -375 50 -67 66 -78 23 -15 -145 208 -348 366 -567 439 -62 20 -89 23
-225 23 -143 -1 -161 -3 -235 -28 -93 -33 -245 -106 -245 -118 0 -5 -5 -9 -10
-9 -6 0 -18 -6 -26 -12 -8 -7 -20 -18 -27 -23 -7 -6 -39 -32 -72 -57 -85 -66
-135 -115 -127 -124 4 -4 1 -4 -5 0 -7 4 -13 3 -13 -2 0 -6 -14 -25 -32 -43
-38 -41 -28 -20 21 41 55 68 179 190 246 241 134 102 276 171 420 203 87 19
292 15 379 -8z m1477 -312 c41 -14 80 -26 87 -27 6 0 12 -4 12 -8 0 -5 7 -5
17 -2 12 5 14 3 8 -7 -5 -9 -4 -11 3 -6 14 8 73 -24 66 -36 -3 -4 1 -5 8 -3
18 7 174 -98 170 -114 -1 -7 2 -10 8 -6 14 9 129 -93 218 -195 278 -317 459
-758 517 -1255 15 -131 19 -439 6 -565 -3 -36 -6 63 -6 220 -1 217 -5 311 -18
395 -20 128 -58 307 -65 301 -2 -3 5 -47 17 -98 72 -325 78 -693 15 -1053 -25
-146 -51 -254 -54 -220 0 11 -17 -32 -36 -95 -104 -340 -282 -669 -455 -842
-25 -26 -55 -57 -65 -70 -24 -30 -158 -146 -204 -177 -21 -14 -13 -4 20 25
290 259 482 549 621 940 110 311 165 720 141 1052 -38 528 -190 959 -470 1332
-81 109 -320 343 -366 359 -6 2 -13 7 -16 12 -7 11 -210 129 -221 129 -6 0 -7
5 -3 12 5 7 2 9 -9 5 -9 -3 -18 0 -21 9 -7 18 -13 19 75 -12z m-67 -43 c16 -6
31 -9 34 -6 9 9 161 -78 245 -141 378 -284 639 -757 737 -1338 61 -361 46
-768 -40 -1121 -33 -135 -79 -289 -85 -283 -2 2 10 48 26 103 37 122 72 281
95 435 14 89 18 177 19 385 0 289 -9 376 -61 615 -26 117 -92 335 -100 328 -2
-2 9 -44 25 -94 69 -211 105 -406 123 -674 17 -258 -5 -530 -66 -799 -26 -116
-75 -285 -81 -279 -3 2 5 35 16 72 11 37 19 70 16 72 -2 3 -12 -24 -21 -58
-24 -85 -99 -274 -152 -379 -148 -297 -310 -494 -570 -696 -72 -56 -326 -184
-339 -171 -3 2 43 26 100 53 58 27 105 52 105 55 0 3 16 14 35 24 19 10 32 23
29 28 -3 5 -2 7 3 6 9 -2 73 30 73 38 0 2 -9 0 -20 -6 -11 -6 -20 -8 -20 -5 0
3 13 11 29 18 16 7 50 36 76 65 27 30 54 51 61 48 8 -3 11 0 8 8 -6 15 21 40
34 32 6 -3 9 2 8 12 0 9 5 16 11 15 7 -2 12 1 10 5 -4 14 76 111 87 105 6 -3
8 -3 4 2 -13 14 31 65 50 59 13 -5 14 -4 4 4 -11 7 -4 24 32 81 402 626 497
1495 246 2251 -21 64 -50 142 -64 175 -15 32 -25 60 -23 62 8 7 70 -144 113
-272 133 -400 168 -863 98 -1283 -9 -51 -14 -95 -11 -98 2 -3 15 60 28 138 21
126 24 177 24 423 0 365 -26 544 -125 849 -142 436 -399 794 -724 1006 -50 32
-97 64 -103 70 -7 6 -28 20 -47 31 -19 11 -41 31 -50 44 l-16 24 43 -13 c23
-8 55 -19 71 -25z m-1932 -106 c160 -24 285 -92 416 -228 39 -41 72 -80 72
-87 0 -6 5 -8 10 -5 6 3 10 2 10 -4 0 -6 20 -41 45 -77 90 -135 193 -380 245
-584 36 -141 63 -295 64 -362 0 -38 3 -68 8 -68 11 0 2 -623 -11 -725 -49
-392 -141 -706 -289 -995 -61 -119 -170 -281 -238 -355 -55 -60 -48 -41 12 30
132 158 275 445 359 720 154 510 181 1129 70 1640 -36 168 -109 404 -121 392
-2 -2 3 -21 11 -41 54 -128 123 -448 143 -656 14 -139 14 -483 2 -628 -23
-266 -87 -577 -160 -787 -39 -109 -100 -256 -113 -270 -5 -5 -1 8 8 30 48 113
87 222 119 330 38 129 76 294 75 322 0 10 -11 -28 -24 -85 -53 -227 -122 -426
-211 -607 -74 -150 -147 -269 -159 -258 -4 5 -5 3 -2 -3 7 -12 -28 -54 -45
-54 -6 0 -9 -3 -5 -6 8 -8 -107 -128 -178 -184 -33 -26 -87 -63 -120 -83 -68
-39 -187 -82 -207 -74 -8 4 -6 6 5 6 29 1 176 78 237 124 65 49 190 175 228
232 15 22 29 42 32 45 15 13 93 146 134 228 152 302 249 667 287 1075 17 188
7 584 -21 762 -22 149 -47 265 -82 383 -31 105 -33 82 -3 -31 62 -230 85 -400
92 -673 10 -388 -29 -714 -129 -1057 -17 -59 -33 -106 -35 -103 -2 2 6 36 18
75 11 40 19 74 17 76 -3 3 -17 -37 -32 -88 -93 -315 -251 -606 -426 -788 -62
-64 -158 -140 -221 -177 -58 -33 -167 -73 -196 -71 -10 0 2 6 27 13 308 86
590 436 759 944 46 138 37 136 -13 -3 -56 -160 -113 -285 -181 -400 -54 -92
-140 -214 -175 -246 -9 -9 -25 -28 -36 -41 -35 -43 -188 -159 -252 -189 -106
-51 -160 -61 -265 -48 -141 16 -216 44 -307 111 -49 36 -28 31 61 -15 170 -87
323 -85 499 4 72 36 110 65 199 152 65 64 186 221 220 286 22 40 -6 13 -31
-30 -13 -24 -27 -38 -36 -34 -7 2 -10 1 -7 -5 3 -5 -3 -23 -14 -41 -17 -27
-21 -30 -27 -16 -8 23 3 50 17 41 8 -4 9 -3 5 4 -4 6 18 47 49 92 30 44 55 82
55 85 0 3 12 23 26 44 26 40 60 119 120 278 37 97 39 106 54 192 5 30 23 98
40 151 31 102 51 183 77 315 24 121 24 606 0 775 -57 402 -176 718 -352 934
-24 30 -42 57 -39 60 2 3 1 4 -2 1 -9 -6 -110 86 -106 97 1 5 -2 7 -7 4 -5 -4
-33 7 -61 24 -28 16 -55 30 -61 30 -6 0 -7 5 -3 12 4 7 3 8 -4 4 -6 -4 -23 -4
-37 0 -16 4 -22 10 -16 13 24 15 -225 3 -273 -13 -27 -9 -52 -14 -54 -11 -3 3
1 5 8 5 7 0 11 2 8 5 -3 3 -21 -2 -41 -10 -38 -16 -51 -29 -19 -19 14 5 14 4
2 -4 -8 -6 -18 -8 -22 -6 -9 6 -72 -29 -105 -59 -18 -16 -25 -18 -37 -8 -13
11 -15 9 -11 -7 3 -19 -10 -39 -27 -41 -5 -1 -7 -3 -5 -4 4 -7 -25 -37 -32
-33 -4 3 -13 0 -21 -6 -12 -8 -11 -8 5 -3 20 6 20 6 0 -13 -11 -11 -23 -18
-27 -15 -5 2 -8 -3 -8 -12 0 -9 -4 -14 -9 -11 -5 4 -12 0 -14 -6 -3 -7 -6 -8
-6 -3 0 6 26 43 59 82 99 120 249 233 360 272 28 10 47 20 44 23 -13 14 150
53 236 57 14 0 69 -6 122 -14z m1967 -34 c56 -29 188 -130 256 -197 389 -380
605 -968 605 -1643 0 -502 -123 -961 -362 -1358 -27 -45 -53 -85 -58 -88 -5
-3 14 31 42 77 115 185 219 440 279 682 32 133 70 383 67 448 l-1 43 -4 -40
c-47 -527 -237 -1026 -510 -1340 -83 -96 -137 -153 -127 -135 7 14 -8 0 -110
-94 -17 -15 -51 -40 -76 -54 -25 -14 -59 -36 -75 -48 -37 -27 -161 -84 -183
-84 -10 0 15 16 53 36 488 250 849 839 939 1535 77 586 -44 1199 -322 1641
-64 103 -209 294 -262 346 l-25 25 31 -21 c32 -22 131 -129 188 -204 124 -163
234 -381 317 -628 16 -47 26 -69 23 -50 -9 50 -89 269 -134 364 -97 206 -225
391 -382 550 -54 54 -98 102 -98 108 0 5 -4 6 -10 3 -5 -3 -10 -3 -10 2 0 4
-18 28 -40 52 -22 25 -40 46 -40 48 0 2 15 -4 33 -13 37 -19 36 -16 -17 25
-45 36 -41 39 13 12z m-2063 -210 c289 -144 502 -555 569 -1102 48 -396 -7
-936 -137 -1339 -39 -119 -127 -335 -134 -327 -2 2 14 44 35 93 42 97 116 322
109 330 -3 2 -15 -31 -27 -73 -51 -175 -160 -408 -263 -562 -94 -139 -237
-272 -357 -331 -84 -42 -89 -37 -8 8 95 52 158 104 239 197 75 86 153 205 216
331 45 90 116 264 110 270 -2 2 -19 -33 -38 -79 -179 -442 -441 -721 -714
-760 -141 -20 -300 41 -423 164 -190 188 -313 484 -374 899 -38 263 -31 655
17 945 106 629 372 1131 697 1315 102 57 158 71 284 67 109 -3 114 -4 199 -46z
m685 3 c121 -36 285 -175 389 -329 57 -84 143 -260 179 -362 37 -110 81 -297
103 -445 18 -120 22 -187 22 -423 0 -274 -10 -401 -45 -579 -6 -28 -12 -62
-15 -75 -22 -107 -72 -292 -110 -406 -16 -48 -23 -66 -77 -185 -14 -30 -31
-72 -38 -92 -7 -20 -15 -35 -18 -34 -3 2 -16 -16 -27 -40 -12 -24 -18 -41 -13
-38 5 3 6 -2 3 -10 -3 -9 -10 -13 -15 -10 -5 3 -6 -1 -3 -9 3 -8 -2 -17 -10
-20 -9 -4 -16 -12 -16 -20 0 -7 -11 -24 -25 -37 -14 -13 -25 -32 -25 -42 0
-11 -4 -16 -10 -13 -5 3 -12 -6 -16 -20 -3 -14 -13 -25 -21 -25 -8 0 -17 -9
-20 -20 -3 -11 -9 -17 -14 -14 -5 3 -9 -1 -9 -10 0 -8 -14 -26 -31 -40 -19
-16 -27 -30 -23 -38 5 -9 2 -9 -9 1 -15 12 -17 12 -12 0 3 -8 -9 -23 -30 -37
-20 -12 -34 -26 -31 -30 2 -4 -11 -6 -30 -4 -19 2 -38 12 -43 21 -12 22 -4 64
14 77 8 6 15 16 15 22 0 6 14 27 30 45 17 19 30 39 30 44 0 6 11 22 25 37 14
15 25 30 25 35 0 4 9 16 19 28 10 11 27 35 36 54 10 19 28 48 40 64 12 17 29
44 37 60 137 272 145 290 213 505 40 128 73 346 81 537 12 276 -28 504 -151
872 -25 74 -45 141 -45 149 0 8 -5 10 -12 6 -7 -4 -10 -4 -7 0 7 8 -6 54 -46
161 -15 39 -28 77 -30 86 -2 10 -15 42 -29 71 -14 30 -26 60 -26 66 0 7 -4 12
-10 12 -5 0 -10 7 -10 15 0 16 -8 33 -69 150 -34 66 -46 85 -78 131 -12 17
-19 34 -16 38 4 3 1 6 -5 6 -7 0 -12 6 -12 14 0 8 -6 21 -13 28 -7 7 -23 30
-36 51 -21 35 -22 37 -4 37 11 0 44 -7 74 -16z m1419 -29 c6 4 7 -1 3 -11 -4
-11 -3 -15 5 -10 13 8 56 -69 47 -84 -3 -5 4 -32 16 -60 13 -30 25 -47 29 -40
4 7 7 -1 7 -17 0 -15 19 -79 42 -141 77 -212 150 -539 154 -693 1 -42 5 -75
10 -72 11 7 -9 -634 -23 -727 l-9 -55 5 65 c22 317 14 635 -22 898 -8 63 -13
121 -9 130 3 9 3 13 -2 9 -4 -4 -24 70 -45 165 -50 232 -99 377 -195 574 -51
105 -64 137 -38 91 9 -15 20 -25 25 -22z m158 -117 c331 -343 542 -942 542
-1542 0 -341 -53 -621 -183 -971 -24 -63 -155 -303 -205 -375 -71 -101 -166
-220 -176 -220 -5 0 0 10 11 22 11 13 24 30 28 38 5 9 4 11 -1 5 -56 -63 -76
-87 -61 -76 29 22 19 -3 -14 -35 -19 -18 -28 -22 -24 -11 4 9 12 17 18 17 6 0
7 3 4 7 -9 9 -68 -48 -61 -59 3 -5 0 -7 -8 -6 -7 2 -12 -2 -11 -8 1 -7 -8 -20
-20 -30 l-22 -19 19 23 c24 28 6 29 -20 1 -29 -33 -224 -158 -224 -145 0 2 39
33 88 69 86 64 159 131 237 219 82 91 76 90 -15 -1 -93 -92 -168 -151 -190
-151 -6 0 -8 -4 -5 -10 3 -5 1 -10 -4 -10 -6 0 -11 2 -11 5 0 2 42 46 93 97
51 51 111 115 133 143 21 27 44 56 51 63 59 63 212 358 262 507 156 464 157
939 1 1505 -12 41 -27 133 -35 209 -3 30 -8 58 -11 63 -9 13 -55 172 -59 201
-2 15 -9 43 -15 63 -21 63 0 54 48 -21 45 -72 124 -244 160 -350 60 -174 118
-439 123 -566 2 -30 3 -31 6 -7 7 45 -26 250 -63 398 -58 232 -149 454 -265
645 -68 112 -175 330 -169 344 1 2 -4 8 -12 12 -7 5 -8 9 -2 9 6 0 34 -24 62
-52z m302 -1488 c0 -5 -8 -10 -17 -10 -17 -1 -17 -1 -1 -13 25 -20 42 -200 35
-377 -19 -456 -198 -911 -469 -1192 -82 -85 -116 -106 -48 -31 95 108 117 137
182 243 86 140 162 313 202 461 48 178 64 316 68 595 2 117 7 210 11 207 5 -3
7 20 6 52 -2 40 1 59 12 66 18 11 19 11 19 -1z"/>
<path d="M3505 4486 c-75 -18 -138 -46 -195 -87 -41 -30 -121 -100 -141 -124
-58 -69 -148 -199 -181 -260 -14 -27 -37 -71 -51 -97 -50 -95 -158 -386 -156
-422 0 -6 20 45 44 114 145 410 362 698 605 802 70 30 83 32 190 32 129 1 154
-4 222 -41 52 -28 158 -119 158 -135 0 -6 -7 -5 -17 3 -16 11 -16 11 -5 -1 7
-8 18 -15 25 -15 7 -1 11 -7 9 -14 -1 -7 2 -10 7 -6 12 7 33 -29 23 -40 -4 -5
-1 -5 6 -1 11 7 17 -6 12 -29 -1 -5 2 -7 6 -3 4 4 14 2 22 -5 31 -25 -67 110
-119 164 -138 143 -304 202 -464 165z"/>
<path d="M3520 4397 c-260 -37 -526 -363 -683 -837 -45 -134 -92 -323 -101
-410 -6 -55 -1 -37 30 110 55 254 168 534 295 730 82 128 228 272 326 323 169
88 319 83 461 -16 62 -43 142 -127 181 -191 13 -20 25 -36 27 -36 16 0 -89
140 -143 191 -115 111 -249 157 -393 136z"/>
<path d="M3540 4349 c-153 -24 -310 -146 -436 -336 -23 -34 -45 -59 -49 -55
-5 4 -5 1 -1 -6 4 -7 -2 -25 -14 -42 -33 -46 -126 -245 -165 -353 -36 -100
-105 -361 -105 -394 1 -10 14 33 30 96 69 267 180 533 292 693 58 83 187 232
195 224 3 -3 -20 -31 -51 -63 -147 -154 -262 -366 -361 -665 -64 -197 -127
-515 -124 -633 1 -22 7 5 14 60 23 187 96 508 126 554 9 14 10 13 4 -3 -43
-137 -92 -361 -117 -531 -20 -140 -17 -553 5 -690 70 -425 228 -716 447 -819
60 -29 73 -31 170 -31 100 0 109 2 181 36 338 162 609 717 679 1394 14 131 14
444 0 570 -22 196 -85 448 -141 556 -11 23 -18 47 -15 55 4 10 2 12 -6 8 -8
-5 -9 -2 -5 10 4 9 3 15 -2 12 -5 -3 -26 24 -47 61 -90 154 -236 269 -369 291
-66 11 -69 11 -135 1z m176 -266 c216 -72 377 -344 440 -744 23 -141 26 -517
6 -654 -22 -155 -60 -326 -97 -439 -36 -110 -85 -230 -92 -223 -2 2 8 30 22
61 65 147 141 469 149 628 2 46 2 67 -1 48 -33 -269 -101 -528 -192 -725 -34
-73 -103 -192 -120 -205 -3 -3 -18 -22 -34 -42 -59 -79 -168 -178 -234 -212
-50 -25 -53 -18 -3 10 158 90 310 301 411 570 40 107 100 320 98 352 0 9 -13
-33 -29 -94 -95 -364 -271 -665 -460 -786 -137 -88 -326 -90 -435 -4 -11 9 7
4 40 -12 51 -23 73 -27 150 -27 78 0 98 4 150 28 219 103 409 397 510 791 34
133 66 320 64 372 -1 16 -7 -11 -14 -61 -72 -519 -290 -937 -560 -1070 -74
-36 -86 -39 -165 -40 -83 0 -156 18 -144 36 3 5 -1 6 -9 4 -7 -3 -25 5 -40 19
-15 14 -27 22 -27 19 0 -13 -37 27 -87 95 -92 124 -150 272 -188 479 -23 121
-31 442 -16 585 63 580 302 1057 608 1212 95 48 210 59 299 29z m-420 -2622
c118 -60 134 -87 46 -77 -31 4 -65 7 -75 7 -10 0 -15 5 -11 11 4 7 2 8 -4 4
-7 -4 -21 2 -33 13 -12 11 -26 18 -31 15 -5 -3 -7 -2 -6 3 2 4 -15 26 -37 48
-37 37 -65 82 -65 105 0 6 27 -10 59 -35 32 -25 103 -67 157 -94z"/>
<path d="M3445 3966 c-61 -19 -107 -45 -135 -75 -14 -15 -23 -22 -20 -16 3 6
-5 -1 -17 -15 -13 -14 -23 -21 -23 -17 0 4 -6 2 -14 -5 -8 -7 -12 -16 -10 -19
7 -12 -28 -49 -39 -43 -7 4 -9 4 -5 -1 4 -4 -10 -30 -31 -59 -52 -70 -105
-171 -157 -298 -44 -107 -114 -334 -114 -366 1 -9 16 35 35 98 81 280 180 465
325 611 114 116 249 174 353 151 25 -5 57 -7 70 -5 14 3 28 -1 32 -7 5 -9 1
-10 -16 -5 -14 4 -3 -7 24 -25 140 -95 238 -287 284 -560 23 -134 22 -430 0
-580 -34 -222 -101 -450 -177 -600 -73 -144 -213 -319 -277 -347 -18 -7 -33
-17 -33 -21 0 -26 -175 -75 -236 -65 -151 24 -273 153 -350 373 -19 52 -34 87
-34 78 0 -35 70 -212 110 -277 60 -99 155 -192 180 -176 5 3 18 1 27 -5 15 -9
14 -10 -6 -4 -14 4 -21 2 -18 -4 13 -19 98 -35 163 -29 364 29 684 669 684
1367 0 196 -17 338 -56 480 -31 112 -99 264 -114 255 -5 -3 -7 0 -4 8 7 20
-76 119 -133 156 -85 57 -183 74 -268 47z"/>
<path d="M3431 3850 c-92 -33 -177 -105 -262 -220 -94 -127 -233 -463 -253
-610 -3 -25 5 -3 19 48 71 265 212 527 352 652 28 25 81 61 119 80 60 31 77
35 144 35 63 0 82 -4 120 -26 25 -15 54 -37 65 -50 18 -21 17 -21 -15 3 -72
53 -98 61 -185 56 -72 -4 -88 -8 -141 -40 -74 -46 -106 -73 -96 -83 4 -5 2 -5
-4 -2 -16 9 -151 -186 -207 -299 -43 -86 -117 -282 -117 -307 1 -7 20 40 44
104 24 64 63 154 87 200 43 82 141 222 175 250 10 8 -5 -15 -33 -51 -95 -123
-173 -278 -233 -465 -38 -119 -72 -282 -65 -306 3 -9 1 -77 -5 -152 -41 -505
141 -897 405 -875 101 8 217 86 309 207 50 66 111 171 99 171 -4 0 -16 -18
-27 -40 -10 -21 -23 -38 -29 -37 -5 1 -11 -6 -12 -17 -5 -28 -82 -106 -149
-152 -46 -31 -123 -54 -175 -53 -44 1 -43 2 16 10 34 4 78 15 98 25 58 27 49
33 -13 8 -105 -43 -202 -23 -284 60 -240 244 -212 903 59 1360 63 107 197 242
278 282 52 25 71 29 145 29 136 0 177 -37 234 -209 17 -52 16 -77 -2 -29 -29
79 -125 175 -195 194 -71 19 -181 -12 -243 -69 -17 -15 -23 -22 -15 -16 9 7
41 25 71 40 45 24 67 29 125 29 78 -1 113 -15 165 -66 44 -44 78 -101 101
-167 26 -75 17 -78 -10 -3 -32 89 -94 166 -158 197 -45 23 -63 26 -112 21 -56
-5 -123 -31 -169 -68 -13 -10 -22 -20 -20 -22 2 -3 -17 -26 -42 -53 -128 -137
-252 -398 -295 -620 -23 -120 -17 -132 10 -19 60 261 165 467 306 605 89 87
172 130 251 130 67 0 100 -14 143 -60 l30 -32 -48 33 c-44 31 -56 34 -115 34
-69 -1 -170 -35 -158 -54 3 -5 -7 -16 -22 -25 l-27 -17 24 20 c13 12 18 21 13
21 -6 0 -23 -16 -38 -35 -14 -19 -31 -32 -38 -28 -6 3 -8 3 -4 -1 4 -5 -23
-47 -59 -94 -37 -48 -88 -132 -115 -188 -48 -100 -91 -214 -84 -221 2 -2 13
25 26 59 66 182 183 356 300 448 32 24 24 14 -26 -35 -39 -39 -92 -102 -117
-141 -92 -145 -179 -363 -182 -459 -1 -27 -8 -95 -15 -150 -31 -253 38 -493
160 -555 88 -45 198 -16 301 78 53 48 133 156 160 215 6 14 16 24 22 20 6 -3
7 -1 3 5 -4 7 2 29 13 50 33 61 69 158 90 245 30 124 31 126 26 71 -3 -27 -19
-104 -36 -170 -38 -149 -44 -180 -24 -129 20 51 59 207 77 305 21 118 18 513
-5 619 -31 144 -85 280 -143 361 -18 26 -30 51 -26 55 4 5 2 5 -4 2 -11 -6
-40 18 -45 38 -2 6 -10 9 -17 7 -8 -2 -11 1 -8 6 3 5 -2 16 -11 23 -14 12 -16
12 -8 0 6 -11 4 -13 -11 -6 -96 39 -154 43 -233 15z m344 -490 c-3 -5 -13 -10
-21 -10 -8 0 -14 -6 -14 -12 0 -7 -26 -28 -58 -45 -59 -34 -144 -103 -127
-103 6 0 21 10 35 23 33 30 88 63 120 71 14 4 1 -7 -27 -24 -61 -36 -156 -127
-178 -170 -9 -17 -20 -30 -25 -30 -6 0 -10 -4 -10 -10 0 -5 -15 -33 -34 -62
-70 -111 -164 -338 -153 -371 2 -7 7 4 12 23 28 130 145 339 254 453 75 78
189 157 227 157 11 0 -3 -13 -36 -32 -68 -38 -150 -107 -150 -124 0 -7 -6 -17
-13 -21 -24 -14 -130 -165 -170 -241 -36 -69 -88 -203 -87 -226 1 -6 14 23 29
64 31 83 71 164 95 195 9 11 1 -10 -19 -46 -125 -234 -150 -509 -59 -641 34
-48 70 -68 126 -68 64 0 73 -11 32 -39 -44 -31 -120 -39 -161 -18 -61 32 -110
104 -139 207 -7 25 -13 38 -13 30 -1 -18 37 -159 47 -175 4 -6 -1 -3 -10 7 -9
10 -27 49 -40 86 -21 60 -23 84 -23 242 1 149 4 189 24 268 27 111 88 264 136
345 19 32 35 60 35 63 0 7 34 47 101 117 55 57 73 69 103 72 l37 4 -46 -41
c-25 -22 -50 -49 -56 -60 -6 -12 6 -4 26 16 44 45 131 102 183 121 46 17 55
18 47 5z m73 -228 c21 -14 6 -33 -83 -107 -46 -38 -86 -76 -90 -84 -5 -12 -3
-12 12 0 10 8 24 20 31 27 8 7 28 20 44 28 19 10 -12 -27 -79 -92 -171 -169
-258 -325 -284 -504 -11 -74 -10 -92 5 -142 10 -35 29 -71 50 -92 29 -31 31
-36 13 -36 -38 0 -84 39 -105 88 -68 159 -9 422 148 654 115 171 279 297 338
260z m-63 -215 c-75 -60 -177 -162 -222 -222 -54 -70 -115 -197 -133 -274 -16
-69 -8 -179 15 -214 10 -15 15 -30 12 -33 -9 -9 -47 81 -53 126 -13 99 48 276
140 404 54 76 152 175 213 215 61 40 79 39 28 -2z m-5 -160 c0 -1 -45 -49
-100 -106 -137 -141 -209 -266 -211 -365 0 -36 -1 -38 -10 -17 -16 40 12 157
58 241 45 83 166 212 221 237 27 12 42 16 42 10z"/>
<path d="M4097 4126 c-4 -10 -1 -19 8 -22 8 -4 12 -10 9 -15 -3 -5 -1 -9 4 -9
6 0 9 -6 9 -12 -1 -7 13 -43 30 -80 77 -161 143 -435 164 -683 14 -169 6 -491
-16 -655 -59 -429 -199 -817 -383 -1065 -57 -77 -201 -219 -244 -241 -18 -9
-40 -22 -48 -29 -55 -45 -300 -99 -300 -67 0 6 -7 9 -15 6 -8 -3 -37 2 -64 11
-109 36 -243 149 -319 268 -77 122 -84 132 -78 113 15 -44 105 -182 155 -238
125 -138 233 -190 395 -191 152 -1 264 52 406 193 539 534 708 1887 332 2654
-28 58 -40 75 -45 62z"/>
</g>
</svg>
