<?xml version="1.0" encoding="UTF-8" standalone="no"?>
<svg
   xmlns:dc="http://purl.org/dc/elements/1.1/"
   xmlns:cc="http://creativecommons.org/ns#"
   xmlns:rdf="http://www.w3.org/1999/02/22-rdf-syntax-ns#"
   xmlns:svg="http://www.w3.org/2000/svg"
   xmlns="http://www.w3.org/2000/svg"
   xmlns:sodipodi="http://sodipodi.sourceforge.net/DTD/sodipodi-0.dtd"
   xmlns:inkscape="http://www.inkscape.org/namespaces/inkscape"
   version="1.0"
   width="30"
   height="30"
   viewBox="0 0 24 24"
   preserveAspectRatio="xMidYMid meet"
   id="svg3047"
   inkscape:version="0.48.5 r10040"
   sodipodi:docname="bw_circle_small.svg">
  <defs
     id="defs3069" />
  <sodipodi:namedview
     pagecolor="#ffffff"
     bordercolor="#666666"
     borderopacity="1"
     objecttolerance="10"
     gridtolerance="10"
     guidetolerance="10"
     inkscape:pageopacity="0"
     inkscape:pageshadow="2"
     inkscape:window-width="1440"
     inkscape:window-height="852"
     id="namedview3067"
     showgrid="false"
     inkscape:zoom="0.59037433"
     inkscape:cx="121.55619"
     inkscape:cy="483.4695"
     inkscape:window-x="0"
     inkscape:window-y="0"
     inkscape:window-maximized="1"
     inkscape:current-layer="svg3047"
     fit-margin-top="0"
     fit-margin-left="0"
     fit-margin-right="0"
     fit-margin-bottom="0"
     showborder="false" />
  <metadata
     id="metadata3049">
Created by potrace 1.11, written by Peter Selinger 2001-2013
<rdf:RDF>
  <cc:Work
     rdf:about="">
    <dc:format>image/svg+xml</dc:format>
    <dc:type
       rdf:resource="http://purl.org/dc/dcmitype/StillImage" />
    <dc:title></dc:title>
  </cc:Work>
</rdf:RDF>
</metadata>
  <g
     transform="matrix(0.00447261,0,0,-0.0044724,-9.575858,24.969392)"
     id="g3051"
     style="fill:#000000;stroke:none">
    <path
       d="m 603,32.125 c -185.2255,0 -335.375,150.18075 -335.375,335.40625 0,185.2255 150.1495,335.375 335.375,335.375 185.2255,0 335.375,-150.1495 335.375,-335.375 C 938.375,182.30575 788.2255,32.125 603,32.125 z M 586.3125,58 c 0.85938,-0.0625 3.6875,0.0625 8.6875,0.375 7.25,0.375 15.375,0.75 18.125,0.75 4,-0.125 4.5,0.125 2.5,1 -1.875,0.875 -1.25,1 2,0.5 9.375,-1.375 38.625,11.25 56.75,24.625 19.875,14.625 42.5,40.875 57.625,67 11.125,19.375 27.625,58.375 29.625,70.5 0.25,1.625 0.75,3.75 1.125,4.75 2.75,7.375 7.875,30.375 9.25,41.875 0.25,2 1.375,10.25 2.375,18.125 C 785,369.625 773.75,454 742.5,527 c -15.625,36.375 -40,73.25 -63.25,95.5 -6.875,6.5 -6.75,6.375 1.75,-3.125 47.625,-53.5 77.125,-123.25 88.5,-209.5 C 773.875,376.75 773.25,319.125 768.125,284 758,215 732.5,153.625 696.875,113.125 c -4.375,-5 -1.875,-1.25 8.875,13.125 16.75,22.5 30.125,47.875 40.25,76.25 5.25,14.75 11.625,35.75 11.25,37.25 -0.125,0.5 0.25,1.75 0.75,2.75 1.375,3.25 5.625,26.75 4.875,27.75 -0.25,0.625 0.125,1.875 0.875,2.875 0.875,1.125 1.125,3.25 0.625,5.625 -0.5,2.125 -0.25,3.75 0.375,3.75 0.625,0 1.125,2.375 1,5.25 0,3 0.75,14.875 1.625,26.625 4.5,55.125 -2.625,120.625 -18.5,172 -17.75,57.125 -44.25,103.75 -78.375,137.875 -5.5,5.375 -13.25,12.375 -17.375,15.375 -4.125,3.125 -5.75,4.125 -3.75,2.25 25.25,-22.25 35.25,-33.625 51.125,-57.25 32.875,-49.25 53.25,-110 61.5,-182.75 2,-18.25 2.5,-71.625 0.75,-88.75 -0.5,-5 -0.875,9.625 -0.875,33.75 0,33.875 -0.5,46 -2.25,60 C 754.75,444 746.25,479 734.5,509.875 713.625,564.75 687.125,605 652.125,635.25 c -4.625,4 -8.875,7.25 -9.375,7.25 -0.5,-0.125 1.375,-1.875 4.125,-4 8.75,-6.875 28,-27.25 36.875,-39.125 9.25,-12.375 17.625,-25.5 26,-40.875 8.5,-15.5 5.125,-11.25 -4.875,6.25 -20.125,35.25 -45.875,64 -73,81.625 -9.75,6.375 -15.375,8.625 -18.25,7.625 -2.5,-1 -2.25,-1.375 3.375,-4.625 20,-11.5 43.625,-33 59.125,-53.625 36.25,-48.25 58.75,-109.375 67.125,-182.625 3.875,-34.125 2.125,-86.625 -3.75,-112.5 -1.125,-4.875 -1.75,-9.5 -1.375,-10.375 0.375,-0.875 0,-1.25 -0.625,-0.875 -0.625,0.375 -1.125,-0.875 -1,-2.75 0,-1.875 -1,-7.5 -2.125,-12.25 -1.25,-4.875 -2.375,-10.875 -2.625,-13.5 -0.125,-2.5 -0.75,-5.375 -1.25,-6.125 -0.625,-0.875 -1.125,-2.375 -1.25,-3.5 -0.75,-4.875 -4.75,-19.75 -6.375,-23.5 -1,-2.25 -1.5,-5.125 -1,-6.25 0.375,-1.125 0.375,-1.625 -0.125,-1.125 -0.5,0.5 -2.75,-4.625 -5,-11.25 -2.125,-6.75 -6.625,-18.375 -9.75,-26 -5.125,-11.875 -7.625,-17 -15.875,-32 -4.875,-8.75 -9.875,-16.375 -15.75,-24.375 -3.625,-5 -6.625,-9.625 -6.625,-10.375 0,-0.75 -0.625,-1.375 -1.5,-1.375 -0.75,0 -1,-0.375 -0.625,-0.75 1.125,-1.125 -9.75,-11.625 -22.875,-22.25 -5.875,-4.75 -10.5,-9.125 -10.25,-9.875 0.25,-0.625 -0.5,-0.875 -1.625,-0.375 -1.125,0.375 -1.625,0.25 -1.25,-0.5 0.375,-0.625 -4.25,-3.625 -10.375,-6.75 -6,-3 -11.75,-6.375 -12.625,-7.5 -0.875,-1 -3.625,-2.25 -6.25,-2.75 -7.5,-1.375 -9,-3.25 -2,-2.5 5.875,0.625 6,0.5 1.875,-0.625 -2.375,-0.75 -7.625,-1.875 -11.875,-2.375 -2.8125,-0.4375 -3.92188,-0.6875 -3.0625,-0.75 z m -29.53125,0.875 c 6.55664,-0.09302 12.65625,0.3125 17.71875,1.25 16,2.75 34,9.875 48.5,19.25 13.75,8.75 31.75,25.625 41.875,39.25 5.125,6.875 7.5,9.625 5.75,6.5 -0.625,-1.125 -0.5,-1.5 0.375,-0.875 0.75,0.5 1.125,1.5 0.75,2.375 -0.25,0.875 1.125,3.375 3.125,5.625 2.125,2.125 3.375,4 2.875,4 -0.375,0 0.375,0.875 1.875,1.875 1.75,1.25 2.5,2.625 2,4 -0.5,1.375 -0.375,1.75 0.75,1.125 0.75,-0.5 1.25,-0.5 1.125,0.125 -0.5,2.125 1.75,6.625 3,5.875 0.875,-0.5 1,-0.25 0.5,0.5 -0.75,1.375 3.5,11.5 4.875,11.5 0.375,0 -0.125,-1.625 -1.25,-3.75 -1,-2 -1.875,-4.125 -1.875,-4.625 0.125,-0.5 1.125,1 2.375,3.375 1.25,2.375 2.125,5 1.75,5.75 -0.25,0.875 1.25,4.75 3.375,8.75 2.125,4.125 3.5,6.25 3.125,4.875 -2,-6 -1.75,-5.875 1.75,1.25 4.25,8.625 5,12.125 1.25,5.625 -2.875,-5 -2.625,-4 4,13.625 11.625,31.125 23.875,88.625 22,103 -0.625,3.875 -0.5,4.625 0.5,2.75 0.75,-1.75 1,1.25 0.625,9.375 -0.375,7.375 -0.25,10.625 0.375,8.75 1.125,-3 1,2.625 -0.5,45.5 -1.625,47.625 -9.875,94.25 -23.875,135.75 -3.125,9.25 -6.5,18.5 -7.375,20.625 -0.875,2 -3.75,8.5 -6.25,14.375 -8,18.625 -26.5,51.375 -35.625,62.875 -13.625,17.25 -33.125,38.375 -35.375,38.375 -0.625,0 2.625,-3.75 7.25,-8.5 47.5,-47.625 80.125,-125 92.75,-219.625 C 724,385.5 724,316.25 720.875,291.875 714.5,243.375 703.5,203.875 686.25,167.75 681.5,158 677.375,150 677,150 c -0.5,0 2,5.5 5.375,12.125 19.25,38.625 31.625,83.75 37.125,136 3.25,31.25 1.375,83.5 -4.625,125 -10.125,70.375 -35.75,135.875 -71.5,183 -9,12 -30.375,34.125 -37.625,39.125 -2.125,1.5 0.125,-0.875 4.875,-5.375 10.625,-9.75 21.125,-20.875 27.75,-29.25 24.75,-31.75 45.375,-74 59,-121.25 5,-17.375 12.625,-52.625 12.5,-57.5 0,-1.375 -1.875,6.5 -4.125,17.5 C 692.625,513.125 670.625,564 637,608 c -6.625,8.625 -22.25,25.75 -23.625,25.75 -0.625,0 -0.375,-1 0.5,-2.25 1.625,-1.875 1.5,-2 -0.375,-0.5 -1.25,1 -2,2.375 -1.875,3.125 0.125,0.75 -0.5,1.375 -1.25,1.5 -0.875,0 -1.5,0.375 -1.25,0.75 0.5,1.625 -4.625,6.25 -6.25,5.5 -1,-0.25 -1.375,-0.125 -1,0.5 0.875,1.625 -15.125,12.875 -18.5,13.125 -1.5,0.125 -2.625,1 -2.375,1.875 0.125,0.875 -0.25,1.25 -0.875,0.75 -0.75,-0.375 -4.875,1 -9.375,3 -20.75,9.75 -47.125,13.625 -66.375,9.75 l -8.75,-1.75 15.25,0.625 c 23.125,0.875 39.875,-2.625 59.625,-12.5 10.25,-5.125 21.125,-12.5 19.625,-13.375 -0.625,-0.375 -0.25,-1.625 0.875,-2.625 1.75,-1.625 1.875,-1.5 1.125,0.375 -1.125,3 0,2.625 4.625,-1.125 7.125,-6 20.75,-19.25 19.625,-19.25 -0.625,0 -1.5,-0.875 -1.875,-2 -0.5,-1.25 1,-4.125 4.125,-7.875 23.625,-28.25 43.625,-65.75 57.75,-107.875 8.625,-26 19.125,-69.125 22.375,-92.375 2.5,-17.25 5,-52.25 5,-69.125 0,-17.375 1,-20.875 2.75,-9.75 1.875,12.375 -0.5,-25 -2.75,-43.125 -3.875,-30.5 -9.875,-56.625 -19.375,-84.125 -6.25,-18.125 -24,-53.5 -33,-66 -4.125,-5.625 -7.375,-10.25 -7.125,-10.25 0.625,0 -8,-9.75 -12.625,-14.5 -2.25,-2.25 -4.125,-4.625 -4.125,-5.25 0,-0.75 -1,-1.625 -2.25,-2 -1.25,-0.375 -4.375,-3 -7,-5.75 -2.5,-2.75 -6.375,-5.875 -8.375,-7.125 -2,-1.25 -3.625,-2.625 -3.625,-3.25 0,-0.5 -0.5,-0.625 -1.25,-0.25 -0.625,0.375 -1.25,0.25 -1.25,-0.375 0,-0.625 -2.625,-2.5 -5.875,-4.125 -3.375,-1.625 -6.25,-3.25 -6.625,-3.625 -1.75,-1.75 -10.375,-4.875 -11.5,-4.25 -0.875,0.625 -1,0.25 -0.375,-0.75 0.75,-1.125 0.25,-1.25 -2,-0.625 -1.625,0.5 -2.625,0.5 -2,-0.125 1.875,-2 -13.625,-5.625 -27.5,-6.375 C 522.5,69 494.5,75.625 478.625,86.75 c -3.875,2.625 -7,2.75 -4.875,0.25 0.75,-1 2.375,-1.5 3.375,-1.125 1.25,0.5 1.75,0.25 1.25,-0.5 -2.125,-3.375 27,-17.875 44.5,-22.25 10.78125,-2.578125 22.97852,-4.094971 33.90625,-4.25 z m -26.75,15.375 c 11.11816,-0.180664 23.67187,0.703125 30.46875,2.5 22,6 39.5,16.75 58.875,36.25 36.75,37 61.75,94.75 72.375,167 7,48.125 5.625,110.75 -3.625,161 -1.25,6.375 -2.375,11.375 -2.75,11.125 -0.25,-0.375 0.625,-7.125 2.125,-15.25 1.375,-8.125 2.5,-16.125 2.375,-18 0,-1.75 -1.375,4.625 -3.125,14.25 C 672.375,516.5 640,584.625 594.625,627.5 587,634.625 572.5,646 572.5,644.75 c 0,-0.25 4.875,-4.5 11,-9.375 39.75,-32.75 72.875,-91.375 90.125,-159.875 4.125,-16.5 10.25,-47.875 10,-52.125 0,-1.5 -1.5,4.75 -3.125,13.875 -14.125,78.125 -45.375,144.875 -87.125,185.625 -7.5,7.25 -13.25,12 -14.25,11.5 -1,-0.25 -1.5,-0.125 -1,0.5 1,1.625 -9,9.25 -10.75,8.125 -0.875,-0.5 -1.125,-0.375 -0.75,0.375 1,1.75 -2.5,3.5 -7.625,4 -0.875,0 -1.375,0.625 -1,1.125 0.75,1.375 -2,2.625 -14.875,7 -44.375,14.75 -82.625,6 -115.625,-26.5 -4.625,-4.5625 -6.9375,-6.85938 -7.09375,-7.125 0.10563,-0.0138 2.09375,1.71875 5.84375,5 39.125,34.5 78.625,40.75 123.75,19.625 5.125,-2.375 9.625,-4.5 10,-4.5 0.375,-0.125 4,-2.625 8.125,-5.625 43,-31.75 74.875,-82.875 94.375,-151.75 24.25,-85.375 24,-176.25 -0.875,-258.25 -6,-19.75 -21.25,-54.625 -27.375,-62.125 -1,-1.25 0.375,1.875 3,7 19.625,37.25 33.375,86.75 37.75,136.625 1.625,19 1.625,64.875 0,84.125 -5,57.75 -19.125,110.25 -41.625,154.875 -6.375,12.75 -20.75,36.5 -25.125,41.5 -0.75,0.875 -6.125,7 -12,13.75 -16.625,19.25 -34.375,33.75 -52.25,42.75 -7.25,3.75 -8.125,2.625 -1,-1.25 3.125,-1.625 5.375,-3.125 5.125,-3.375 -0.25,-0.375 -2.625,0.625 -5.125,2.125 -10.25,6.125 -30.5,11.375 -43.875,11.375 -33,0 -64.125,-16.875 -88.625,-48.125 -3.375,-4.25 -1.375,-2.75 6.375,5.125 18.625,18.75 33.25,28.5 52.375,34.875 17.5,5.875 39.75,5.5 57.75,-0.75 11.25,-4 33.75,-16.125 29.875,-16.125 -0.75,0 -2.375,0.75 -3.75,1.75 -21.875,15.25 -54.75,21.375 -79.5,14.75 -18.75,-5 -36.375,-16.25 -52,-32.875 -6.25,-6.625 -9.25,-11.375 -4.375,-7 1.25,1.25 2.75,1.75 3.375,1.25 0.5,-0.625 0.625,-0.375 0.25,0.375 -0.5,0.875 0,2.125 1,3 1.625,1.375 1.75,1.25 1.125,-0.5 -1,-2.625 2.75,-2.75 4.25,0 0.625,1.125 1.5,1.875 2,1.75 0.5,-0.125 4.875,2.625 9.625,6.125 31.375,23.375 64.25,27.25 98.125,11.375 15,-7 24.625,-14 38.625,-28 40.75,-41 68.375,-105.625 80.125,-187.75 2.625,-18.875 3.75,-77 1.875,-97.625 -4.875,-52 -19.125,-99.875 -40.25,-135.375 -5.875,-9.875 -19.25,-26.5 -27.75,-34.5 -21.5,-20.5 -42.875,-29.75 -68.375,-29.625 -13.25,0 -22.625,1.75 -36,6.75 -8.625,3.125 -11,3 -4.625,-0.375 8.5,-4.5 22,-8.5 33,-9.75 41.875,-4.75 83,22.875 110.25,74.125 3.375,6.25 6.125,10.875 6.125,10.25 0,-2 -10.75,-21.375 -16.875,-30.5 C 583.5,122 543,101.125 502.375,109.375 c -10.125,2 -28.25,8.75 -34.125,12.5 -1.5,1 -3.125,1.5 -3.625,1.125 -0.5,-0.5 -2.875,0.625 -5.5,2.5 l -4.75,3.375 4.625,-4.125 c 6.875,-6.25 24,-15.625 35.375,-19.25 5.5,-1.75 14.875,-3.75 21,-4.5 19.875,-2.375 42.75,3.5 61.5,15.875 10.75,7.125 28.5,24.625 36.5,35.875 3.75,5.375 7.125,9.75 7.375,9.75 2,0 -14.375,-20.875 -23.875,-30.625 -16.25,-16.5 -31.125,-26 -50.625,-32 C 538.5,97.5 534.125,97 521.25,97 c -14,0 -16.875,0.375 -28.125,4 -10.25,3.25 -33.25,14.5 -35.625,17.625 -1,1.25 -16.125,11.375 -17,11.375 -1.75,0 13.125,-13.5 21.125,-19.125 C 472.25,103.25 490.5,94.75 501.875,92 c 17.75,-4.375 41.875,-3.75 58.75,1.375 21.625,6.625 44.75,24.25 61.75,46.875 6.25,8.375 8.25,9.75 2.875,1.875 -18.125,-26 -43.5,-45.75 -70.875,-54.875 -7.75,-2.5 -11.125,-2.875 -28.125,-2.875 -17.875,0.125 -20.125,0.375 -29.375,3.5 -11.625,4.125 -30.625,13.25 -30.625,14.75 0,0.625 -0.625,1.125 -1.25,1.125 -0.75,0 -2.25,0.75 -3.25,1.5 -1,0.875 -2.5,2.25 -3.375,2.875 -0.875,0.75 -4.875,4 -9,7.125 -10.625,8.25 -16.875,14.375 -15.875,15.5 0.5,0.5 0.125,0.5 -0.625,0 -0.875,-0.5 -1.625,-0.375 -1.625,0.25 0,0.75 -1.75,3.125 -4,5.375 -4.75,5.125 -3.5,2.5 2.625,-5.125 6.875,-8.5 22.375,-23.75 30.75,-30.125 16.75,-12.75 34.5,-21.375 52.5,-25.375 4.07812,-0.890625 10.23535,-1.391602 16.90625,-1.5 z m 205.625,38.4375 c 0.82095,-0.0178 3.28125,0.88281 9.46875,3.0625 5.125,1.75 10,3.25 10.875,3.375 0.75,0 1.5,0.5 1.5,1 0,0.625 0.875,0.625 2.125,0.25 1.5,-0.625 1.75,-0.375 1,0.875 -0.625,1.125 -0.5,1.375 0.375,0.75 1.75,-1 9.125,3 8.25,4.5 -0.375,0.5 0.125,0.625 1,0.375 2.25,-0.875 21.75,12.25 21.25,14.25 -0.125,0.875 0.25,1.25 1,0.75 1.75,-1.125 16.125,11.625 27.25,24.375 34.75,39.625 57.375,94.75 64.625,156.875 1.875,16.375 2.375,54.875 0.75,70.625 -0.375,4.5 -0.75,-7.875 -0.75,-27.5 -0.125,-27.125 -0.625,-38.875 -2.25,-49.375 -2.5,-16 -7.25,-38.375 -8.125,-37.625 -0.25,0.375 0.625,5.875 2.125,12.25 9,40.625 9.75,86.625 1.875,131.625 -3.125,18.25 -6.375,31.75 -6.75,27.5 0,-1.375 -2.125,4 -4.5,11.875 -13,42.5 -35.25,83.625 -56.875,105.25 -3.125,3.25 -6.875,7.125 -8.125,8.75 -3,3.75 -19.75,18.25 -25.5,22.125 -2.625,1.75 -1.625,0.5 2.5,-3.125 C 815,563.125 839,526.875 856.375,478 870.125,439.125 877,388 874,346.5 869.25,280.5 850.25,226.625 815.25,180 c -10.125,-13.625 -40,-42.875 -45.75,-44.875 -0.75,-0.25 -1.625,-0.875 -2,-1.5 -0.875,-1.375 -26.25,-16.125 -27.625,-16.125 -0.75,0 -0.875,-0.625 -0.375,-1.5 0.625,-0.875 0.25,-1.125 -1.125,-0.625 -1.125,0.375 -2.25,0 -2.625,-1.125 -0.38281,-0.98438 -0.73227,-1.54861 -0.0937,-1.5625 z M 722.5,116.375 727.875,118 c 2.875,1 6.875,2.375 8.875,3.125 2,0.75 3.875,1.125 4.25,0.75 1.125,-1.125 20.125,9.75 30.625,17.625 47.25,35.5 79.875,94.625 92.125,167.25 7.625,45.125 5.75,96 -5,140.125 -4.125,16.875 -9.875,36.125 -10.625,35.375 -0.25,-0.25 1.25,-6 3.25,-12.875 4.625,-15.25 9,-35.125 11.875,-54.375 1.75,-11.125 2.25,-22.125 2.375,-48.125 0,-36.125 -1.125,-47 -7.625,-76.875 -3.25,-14.625 -11.5,-41.875 -12.5,-41 -0.25,0.25 1.125,5.5 3.125,11.75 8.625,26.375 13.125,50.75 15.375,84.25 2.125,32.25 -0.625,66.25 -8.25,99.875 -3.25,14.5 -9.375,35.625 -10.125,34.875 -0.375,-0.25 0.625,-4.375 2,-9 1.375,-4.625 2.375,-8.75 2,-9 -0.25,-0.375 -1.5,3 -2.625,7.25 -3,10.625 -12.375,34.25 -19,47.375 -18.5,37.125 -38.75,61.75 -71.25,87 -9,7 -40.75,23 -42.375,21.375 -0.375,-0.25 5.375,-3.25 12.5,-6.625 7.25,-3.375 13.125,-6.5 13.125,-6.875 0,-0.375 2,-1.75 4.375,-3 2.375,-1.25 4,-2.875 3.625,-3.5 -0.375,-0.625 -0.25,-0.875 0.375,-0.75 1.125,0.25 9.125,-3.75 9.125,-4.75 0,-0.25 -1.125,0 -2.5,0.75 -1.375,0.75 -2.5,1 -2.5,0.625 0,-0.375 1.625,-1.375 3.625,-2.25 2,-0.875 6.25,-4.5 9.5,-8.125 3.375,-3.75 6.75,-6.375 7.625,-6 1,0.375 1.375,0 1,-1 -0.75,-1.875 2.625,-5 4.25,-4 0.75,0.375 1.125,-0.25 1,-1.5 0,-1.125 0.625,-2 1.375,-1.875 0.875,0.25 1.5,-0.125 1.25,-0.625 -0.5,-1.75 9.5,-13.875 10.875,-13.125 0.75,0.375 1,0.375 0.5,-0.25 -1.625,-1.75 3.875,-8.125 6.25,-7.375 1.625,0.625 1.75,0.5 0.5,-0.5 -1.375,-0.875 -0.5,-3 4,-10.125 C 854.5,465.625 866.375,357 835,262.5 c -2.625,-8 -6.25,-17.75 -8,-21.875 -1.875,-4 -3.125,-7.5 -2.875,-7.75 1,-0.875 8.75,18 14.125,34 16.625,50 21,107.875 12.25,160.375 -1.125,6.375 -1.75,11.875 -1.375,12.25 0.25,0.375 1.875,-7.5 3.5,-17.25 2.625,-15.75 3,-22.125 3,-52.875 0,-45.625 -3.25,-68 -15.625,-106.125 -17.75,-54.5 -49.875,-99.25 -90.5,-125.75 -6.25,-4 -12.125,-8 -12.875,-8.75 -0.875,-0.75 -3.5,-2.5 -5.875,-3.875 -2.375,-1.375 -5.125,-3.875 -6.25,-5.5 l -2,-3 z M 480,132.625 c 1.75,0 8.625,0.75 15.25,1.75 20,3 35.625,11.5 52,28.5 4.875,5.125 9,10 9,10.875 0,0.75 0.625,1 1.25,0.625 0.75,-0.375 1.25,-0.25 1.25,0.5 0,0.75 2.5,5.125 5.625,9.625 11.25,16.875 24.125,47.5 30.625,73 4.5,17.625 7.875,36.875 8,45.25 0,4.75 0.375,8.5 1,8.5 1.375,0 0.25,77.875 -1.375,90.625 -6.125,49 -17.625,88.25 -36.125,124.375 -7.625,14.875 -21.25,35.125 -29.75,44.375 -6.875,7.5 -6,5.125 1.5,-3.75 16.5,-19.75 34.375,-55.625 44.875,-90 19.25,-63.75 22.625,-141.125 8.75,-205 -4.5,-21 -13.625,-50.5 -15.125,-49 -0.25,0.25 0.375,2.625 1.375,5.125 6.75,16 15.375,56 17.875,82 1.75,17.375 1.75,60.375 0.25,78.5 -2.875,33.25 -10.875,72.125 -20,98.375 -4.875,13.625 -12.5,32 -14.125,33.75 -0.625,0.625 -0.125,-1 1,-3.75 6,-14.125 10.875,-27.75 14.875,-41.25 4.75,-16.125 9.5,-36.75 9.375,-40.25 0,-1.25 -1.375,3.5 -3,10.625 -6.625,28.375 -15.25,53.25 -26.375,75.875 -9.25,18.75 -18.375,33.625 -19.875,32.25 -0.5,-0.625 -0.625,-0.375 -0.25,0.375 0.875,1.5 -3.5,6.75 -5.625,6.75 -0.75,0 -1.125,0.375 -0.625,0.75 1,1 -13.375,16 -22.25,23 -4.125,3.25 -10.875,7.875 -15,10.375 -8.5,4.875 -23.375,10.25 -25.875,9.25 -1,-0.5 -0.75,-0.75 0.625,-0.75 3.625,-0.125 22,-9.75 29.625,-15.5 8.125,-6.125 23.75,-21.875 28.5,-29 1.875,-2.75 3.625,-5.25 4,-5.625 1.875,-1.625 11.625,-18.25 16.75,-28.5 19,-37.75 31.125,-83.375 35.875,-134.375 2.125,-23.5 0.875,-73 -2.625,-95.25 C 578.5,277 575.375,262.5 571,247.75 c -3.875,-13.125 -4.125,-10.25 -0.375,3.875 7.75,28.75 10.625,50 11.5,84.125 1.25,48.5 -3.625,89.25 -16.125,132.125 -2.125,7.375 -4.125,13.25 -4.375,12.875 -0.25,-0.25 0.75,-4.5 2.25,-9.375 1.375,-5 2.375,-9.25 2.125,-9.5 -0.375,-0.375 -2.125,4.625 -4,11 -11.625,39.375 -31.375,75.75 -53.25,98.5 -7.75,8 -19.75,17.5 -27.625,22.125 -7.25,4.125 -20.875,9.125 -24.5,8.875 -1.25,0 0.25,-0.75 3.375,-1.625 38.5,-10.75 73.75,-54.5 94.875,-118 5.75,-17.25 4.625,-17 -1.625,0.375 -7,20 -14.125,35.625 -22.625,50 -6.75,11.5 -17.5,26.75 -21.875,30.75 -1.125,1.125 -3.125,3.5 -4.5,5.125 -4.375,5.375 -23.5,19.875 -31.5,23.625 -13.25,6.375 -20,7.625 -33.125,6 -17.625,-2 -27,-5.5 -38.375,-13.875 -6.125,-4.5 -3.5,-3.875 7.625,1.875 21.25,10.875 40.375,10.625 62.375,-0.5 9,-4.5 13.75,-8.125 24.875,-19 8.125,-8 23.25,-27.625 27.5,-35.75 2.75,-5 -0.75,-1.625 -3.875,3.75 -1.625,3 -3.375,4.75 -4.5,4.25 -0.875,-0.25 -1.25,-0.125 -0.875,0.625 0.375,0.625 -0.375,2.875 -1.75,5.125 -2.125,3.375 -2.625,3.75 -3.375,2 -1,-2.875 0.375,-6.25 2.125,-5.125 1,0.5 1.125,0.375 0.625,-0.5 -0.5,-0.75 2.25,-5.875 6.125,-11.5 3.75,-5.5 6.875,-10.25 6.875,-10.625 0,-0.375 1.5,-2.875 3.25,-5.5 3.25,-5 7.5,-14.875 15,-34.75 4.625,-12.125 4.875,-13.25 6.75,-24 0.625,-3.75 2.875,-12.25 5,-18.875 3.875,-12.75 6.375,-22.875 9.625,-39.375 3,-15.125 3,-75.75 0,-96.875 -7.125,-50.25 -22,-89.75 -44,-116.75 -3,-3.75 -5.25,-7.125 -4.875,-7.5 0.25,-0.375 0.125,-0.5 -0.25,-0.125 -1.125,0.75 -13.75,-10.75 -13.25,-12.125 0.125,-0.625 -0.25,-0.875 -0.875,-0.5 -0.625,0.5 -4.125,-0.875 -7.625,-3 -3.5,-2 -6.875,-3.75 -7.625,-3.75 -0.75,0 -0.875,-0.625 -0.375,-1.5 0.5,-0.875 0.375,-1 -0.5,-0.5 -0.75,0.5 -2.875,0.5 -4.625,0 -2,-0.5 -2.75,-1.25 -2,-1.625 3,-1.875 -28.125,-0.375 -34.125,1.625 -3.375,1.125 -6.5,1.75 -6.75,1.375 -0.375,-0.375 0.125,-0.625 1,-0.625 0.875,0 1.375,-0.25 1,-0.625 -0.375,-0.375 -2.625,0.25 -5.125,1.25 -4.75,2 -6.375,3.625 -2.375,2.375 1.75,-0.625 1.75,-0.5 0.25,0.5 -1,0.75 -2.25,1 -2.75,0.75 -1.125,-0.75 -9,3.625 -13.125,7.375 -2.25,2 -3.125,2.25 -4.625,1 -1.625,-1.375 -1.875,-1.125 -1.375,0.875 0.375,2.375 -1.25,4.875 -3.375,5.125 -0.625,0.125 -0.875,0.375 -0.625,0.5 0.5,0.875 -3.125,4.625 -4,4.125 -0.5,-0.375 -1.625,0 -2.625,0.75 -1.5,1 -1.375,1 0.625,0.375 2.5,-0.75 2.5,-0.75 0,1.625 -1.375,1.375 -2.875,2.25 -3.375,1.875 -0.625,-0.25 -1,0.375 -1,1.5 0,1.125 -0.5,1.75 -1.125,1.375 -0.625,-0.5 -1.5,0 -1.75,0.75 -0.375,0.875 -0.75,1 -0.75,0.375 0,-0.75 3.25,-5.375 7.375,-10.25 12.375,-15 31.125,-29.125 45,-34 3.5,-1.25 5.875,-2.5 5.5,-2.875 -1.625,-1.75 18.75,-6.625 29.5,-7.125 z m 255.84375,3.75 c 0.57101,0.01 2.32813,0.77344 5.28125,2.25 7,3.625 23.5,16.25 32,24.625 48.625,47.5 75.625,121 75.625,205.375 0,62.75 -15.375,120.125 -45.25,169.75 -3.375,5.625 -6.625,10.625 -7.25,11 -0.625,0.375 1.75,-3.875 5.25,-9.625 14.375,-23.125 27.375,-55 34.875,-85.25 4,-16.625 8.75,-47.875 8.375,-56 l -0.125,-5.375 -0.5,5 C 838.25,464 814.5,526.375 780.375,565.625 770,577.625 763.25,584.75 764.5,582.5 c 0.875,-1.75 -1,0 -13.75,11.75 -2.125,1.875 -6.375,5 -9.5,6.75 -3.125,1.75 -7.375,4.5 -9.375,6 -4.625,3.375 -20.125,10.5 -22.875,10.5 -1.25,0 1.875,-2 6.625,-4.5 C 776.625,581.75 821.75,508.125 833,421.125 842.625,347.875 827.5,271.25 792.75,216 784.75,203.125 766.625,179.25 760,172.75 l -3.125,-3.125 3.875,2.625 c 4,2.75 16.375,16.125 23.5,25.5 15.5,20.375 29.25,47.625 39.625,78.5 2,5.875 3.25,8.625 2.875,6.25 C 825.625,276.25 815.625,248.875 810,237 797.875,211.25 781.875,188.125 762.25,168.25 755.5,161.5 750,155.5 750,154.75 c 0,-0.625 -0.5,-0.75 -1.25,-0.375 -0.625,0.375 -1.25,0.375 -1.25,-0.25 0,-0.5 -2.25,-3.5 -5,-6.5 -2.75,-3.125 -5,-5.75 -5,-6 0,-0.25 1.875,0.5 4.125,1.625 4.625,2.375 4.5,2 -2.125,-3.125 -3.16406,-2.53125 -4.39041,-3.76236 -3.65625,-3.75 z m -283,22.6875 c 1.72363,-0.0139 3.5625,0 5.53125,0.0625 13.625,0.375 14.25,0.5 24.875,5.75 36.125,18 62.75,69.375 71.125,137.75 6,49.5 -0.875,117 -17.125,167.375 -4.875,14.875 -15.875,41.875 -16.75,40.875 -0.25,-0.25 1.75,-5.5 4.375,-11.625 5.25,-12.125 14.5,-40.25 13.625,-41.25 -0.375,-0.25 -1.875,3.875 -3.375,9.125 -6.375,21.875 -20,51 -32.875,70.25 -11.75,17.375 -29.625,34 -44.625,41.375 -10.5,5.25 -11.125,4.625 -1,-1 11.875,-6.5 19.75,-13 29.875,-24.625 9.375,-10.75 19.125,-25.625 27,-41.375 5.625,-11.25 14.5,-33 13.75,-33.75 -0.25,-0.25 -2.375,4.125 -4.75,9.875 -22.375,55.25 -55.125,90.125 -89.25,95 -17.625,2.5 -37.5,-5.125 -52.875,-20.5 -23.75,-23.5 -39.125,-60.5 -46.75,-112.375 -4.75,-32.875 -3.875,-81.875 2.125,-118.125 C 349,253.25 382.25,190.5 422.875,167.5 c 11.15625,-6.23438 17.90332,-8.34009 29.96875,-8.4375 z M 559.625,162.5 c 1.375,0 5.5,0.875 9.25,2 15.125,4.5 35.625,21.875 48.625,41.125 7.125,10.5 17.875,32.5 22.375,45.25 C 644.5,264.625 650,288 652.75,306.5 c 2.25,15 2.75,23.375 2.75,52.875 0,34.25 -1.25,50.125 -5.625,72.375 -0.75,3.5 -1.5,7.75 -1.875,9.375 -2.75,13.375 -9,36.5 -13.75,50.75 -2,6 -2.875,8.25 -9.625,23.125 -1.75,3.75 -3.875,9 -4.75,11.5 -0.875,2.5 -1.875,4.375 -2.25,4.25 -0.375,-0.25 -2,2 -3.375,5 -1.5,3 -2.25,5.125 -1.625,4.75 0.625,-0.375 0.75,0.25 0.375,1.25 -0.375,1.125 -1.25,1.625 -1.875,1.25 -0.625,-0.375 -0.75,0.125 -0.375,1.125 0.375,1 -0.25,2.125 -1.25,2.5 -1.125,0.5 -2,1.5 -2,2.5 0,0.875 -1.375,3 -3.125,4.625 -1.75,1.625 -3.125,4 -3.125,5.25 0,1.375 -0.5,2 -1.25,1.625 -0.625,-0.375 -1.5,0.75 -2,2.5 -0.375,1.75 -1.625,3.125 -2.625,3.125 -1,0 -2.125,1.125 -2.5,2.5 -0.375,1.375 -1.125,2.125 -1.75,1.75 -0.625,-0.375 -1.125,0.125 -1.125,1.25 0,1 -1.75,3.25 -3.875,5 -2.375,2 -3.375,3.75 -2.875,4.75 0.625,1.125 0.25,1.125 -1.125,-0.125 -1.875,-1.5 -2.125,-1.5 -1.5,0 0.375,1 -1.125,2.875 -3.75,4.625 -2.5,1.5 -4.25,3.25 -3.875,3.75 0.25,0.5 -1.375,0.75 -3.75,0.5 -2.375,-0.25 -4.75,-1.5 -5.375,-2.625 -1.5,-2.75 -0.5,-8 1.75,-9.625 1,-0.75 1.875,-2 1.875,-2.75 0,-0.75 1.75,-3.375 3.75,-5.625 2.125,-2.375 3.75,-4.875 3.75,-5.5 0,-0.75 1.375,-2.75 3.125,-4.625 1.75,-1.875 3.125,-3.75 3.125,-4.375 0,-0.5 1.125,-2 2.375,-3.5 1.25,-1.375 3.375,-4.375 4.5,-6.75 1.25,-2.375 3.5,-6 5,-8 1.5,-2.125 3.625,-5.5 4.625,-7.5 17.125,-34 18.125,-36.25 26.625,-63.125 5,-16 9.125,-43.25 10.125,-67.125 1.5,-34.5 -3.5,-63 -18.875,-109 C 612.5,280.875 610,272.5 610,271.5 c 0,-1 -0.625,-1.25 -1.5,-0.75 -0.875,0.5 -1.25,0.5 -0.875,0 0.875,-1 -0.75,-6.75 -5.75,-20.125 -1.875,-4.875 -3.5,-9.625 -3.75,-10.75 -0.25,-1.25 -1.875,-5.25 -3.625,-8.875 -1.75,-3.75 -3.25,-7.5 -3.25,-8.25 0,-0.875 -0.5,-1.5 -1.25,-1.5 -0.625,0 -1.25,-0.875 -1.25,-1.875 0,-2 -1,-4.125 -8.625,-18.75 -4.25,-8.25 -5.75,-10.625 -9.75,-16.375 -1.5,-2.125 -2.375,-4.25 -2,-4.75 0.5,-0.375 0.125,-0.75 -0.625,-0.75 -0.875,0 -1.5,-0.75 -1.5,-1.75 0,-1 -0.75,-2.625 -1.625,-3.5 -0.875,-0.875 -2.875,-3.75 -4.5,-6.375 -2.625,-4.375 -2.75,-4.625 -0.5,-4.625 z m 181.875,0.3125 c 0.0673,-0.0883 0.60938,0.76562 1.625,2.5625 1.125,1.875 2.5,3.125 3.125,2.75 0.75,-0.5 0.875,0.125 0.375,1.375 -0.5,1.375 -0.375,1.875 0.625,1.25 1.625,-1 7,8.625 5.875,10.5 -0.375,0.625 0.5,4 2,7.5 1.625,3.75 3.125,5.875 3.625,5 0.5,-0.875 0.875,0.125 0.875,2.125 0,1.875 2.375,9.875 5.25,17.625 9.625,26.5 18.75,67.375 19.25,86.625 0.125,5.25 0.625,9.375 1.25,9 1.375,-0.875 -1.125,79.25 -2.875,90.875 l -1.125,6.875 0.625,-8.125 c 2.75,-39.625 1.75,-79.375 -2.75,-112.25 -1,-7.875 -1.625,-15.125 -1.125,-16.25 0.375,-1.125 0.375,-1.625 -0.25,-1.125 -0.5,0.5 -3,-8.75 -5.625,-20.625 -6.25,-29 -12.375,-47.125 -24.375,-71.75 -4.38281,-9.02344 -6.52304,-13.74313 -6.375,-13.9375 z m 16.75,13.4375 c 0.75,0 4.25,3 7.75,6.5 41.375,42.875 67.75,117.75 67.75,192.75 0,42.625 -6.625,77.625 -22.875,121.375 -3,7.875 -19.375,37.875 -25.625,46.875 -8.875,12.625 -20.75,27.5 -22,27.5 -0.625,0 0,-1.25 1.375,-2.75 1.375,-1.625 3,-3.75 3.5,-4.75 0.625,-1.125 0.5,-1.375 -0.125,-0.625 -7,7.875 -9.5,10.875 -7.625,9.5 3.625,-2.75 2.375,0.375 -1.75,4.375 -2.375,2.25 -3.5,2.75 -3,1.375 0.5,-1.125 1.5,-2.125 2.25,-2.125 0.75,0 0.875,-0.375 0.5,-0.875 -1.125,-1.125 -8.5,6 -7.625,7.375 0.375,0.625 0,0.875 -1,0.75 -0.875,-0.25 -1.5,0.25 -1.375,1 0.125,0.875 -1,2.5 -2.5,3.75 l -2.75,2.375 2.375,-2.875 c 3,-3.5 0.75,-3.625 -2.5,-0.125 -3.625,4.125 -28,19.75 -28,18.125 0,-0.25 4.875,-4.125 11,-8.625 10.75,-8 19.875,-16.375 29.625,-27.375 10.25,-11.375 9.5,-11.25 -1.875,0.125 -11.625,11.5 -21,18.875 -23.75,18.875 -0.75,0 -1,0.5 -0.625,1.25 0.375,0.625 0.125,1.25 -0.5,1.25 -0.75,0 -1.375,-0.25 -1.375,-0.625 0,-0.25 5.25,-5.75 11.625,-12.125 6.375,-6.375 13.875,-14.375 16.625,-17.875 2.625,-3.375 5.5,-7 6.375,-7.875 7.375,-7.875 26.5,-44.75 32.75,-63.375 19.5,-58 19.625,-117.375 0.125,-188.125 -1.5,-5.125 -3.375,-16.625 -4.375,-26.125 -0.375,-3.75 -1,-7.25 -1.375,-7.875 -1.125,-1.625 -6.875,-21.5 -7.375,-25.125 -0.25,-1.875 -1.125,-5.375 -1.875,-7.875 -2.625,-7.875 0,-6.75 6,2.625 5.625,9 15.5,30.5 20,43.75 7.5,21.75 14.75,54.875 15.375,70.75 0.25,3.75 0.375,3.875 0.75,0.875 0.875,-5.625 -3.25,-31.25 -7.875,-49.75 -7.25,-29 -18.625,-56.75 -33.125,-80.625 -8.5,-14 -21.875,-41.25 -21.125,-43 0.125,-0.25 -0.5,-1 -1.5,-1.5 -0.875,-0.625 -1,-1.125 -0.25,-1.125 z m 45.15625,191.375 c 0.3125,0.0156 0.34375,0.375 0.34375,1.125 0,0.625 -1,1.25 -2.125,1.25 -0.66041,0.0389 -1.09007,0.0615 -1.34375,0.125 0.25154,-0.70047 0.6213,-1.19935 1.09375,-1.5 1.125,-0.6875 1.71875,-1.01562 2.03125,-1 z m -3.25,2.9375 c 0.20821,0.22716 0.65237,0.54397 1.34375,1.0625 3.125,2.5 5.25,25 4.375,47.125 -2.375,57 -24.75,113.875 -58.625,149 -10.25,10.625 -14.5,13.25 -6,3.875 11.875,-13.5 14.625,-17.125 22.75,-30.375 10.75,-17.5 20.25,-39.125 25.25,-57.625 6,-22.25 8,-39.5 8.5,-74.375 0.25,-14.625 0.875,-26.25 1.375,-25.875 0.625,0.375 0.875,-2.5 0.75,-6.5 -0.14732,-2.94643 -0.0822,-4.95896 0.28125,-6.3125 z"
       transform="matrix(8,0,0,-8,0,5840)"
       id="path3053"
       inkscape:connector-curvature="0" />
    <path
       d="m 3505,4486 c -75,-18 -138,-46 -195,-87 -41,-30 -121,-100 -141,-124 -58,-69 -148,-199 -181,-260 -14,-27 -37,-71 -51,-97 -50,-95 -158,-386 -156,-422 0,-6 20,45 44,114 145,410 362,698 605,802 70,30 83,32 190,32 129,1 154,-4 222,-41 52,-28 158,-119 158,-135 0,-6 -7,-5 -17,3 -16,11 -16,11 -5,-1 7,-8 18,-15 25,-15 7,-1 11,-7 9,-14 -1,-7 2,-10 7,-6 12,7 33,-29 23,-40 -4,-5 -1,-5 6,-1 11,7 17,-6 12,-29 -1,-5 2,-7 6,-3 4,4 14,2 22,-5 31,-25 -67,110 -119,164 -138,143 -304,202 -464,165 z"
       id="path3055"
       inkscape:connector-curvature="0" />
    <path
       d="m 3520,4397 c -260,-37 -526,-363 -683,-837 -45,-134 -92,-323 -101,-410 -6,-55 -1,-37 30,110 55,254 168,534 295,730 82,128 228,272 326,323 169,88 319,83 461,-16 62,-43 142,-127 181,-191 13,-20 25,-36 27,-36 16,0 -89,140 -143,191 -115,111 -249,157 -393,136 z"
       id="path3057"
       inkscape:connector-curvature="0" />
    <path
       d="m 3540,4349 c -153,-24 -310,-146 -436,-336 -23,-34 -45,-59 -49,-55 -5,4 -5,1 -1,-6 4,-7 -2,-25 -14,-42 -33,-46 -126,-245 -165,-353 -36,-100 -105,-361 -105,-394 1,-10 14,33 30,96 69,267 180,533 292,693 58,83 187,232 195,224 3,-3 -20,-31 -51,-63 -147,-154 -262,-366 -361,-665 -64,-197 -127,-515 -124,-633 1,-22 7,5 14,60 23,187 96,508 126,554 9,14 10,13 4,-3 -43,-137 -92,-361 -117,-531 -20,-140 -17,-553 5,-690 70,-425 228,-716 447,-819 60,-29 73,-31 170,-31 100,0 109,2 181,36 338,162 609,717 679,1394 14,131 14,444 0,570 -22,196 -85,448 -141,556 -11,23 -18,47 -15,55 4,10 2,12 -6,8 -8,-5 -9,-2 -5,10 4,9 3,15 -2,12 -5,-3 -26,24 -47,61 -90,154 -236,269 -369,291 -66,11 -69,11 -135,1 z m 176,-266 c 216,-72 377,-344 440,-744 23,-141 26,-517 6,-654 -22,-155 -60,-326 -97,-439 -36,-110 -85,-230 -92,-223 -2,2 8,30 22,61 65,147 141,469 149,628 2,46 2,67 -1,48 -33,-269 -101,-528 -192,-725 -34,-73 -103,-192 -120,-205 -3,-3 -18,-22 -34,-42 -59,-79 -168,-178 -234,-212 -50,-25 -53,-18 -3,10 158,90 310,301 411,570 40,107 100,320 98,352 0,9 -13,-33 -29,-94 -95,-364 -271,-665 -460,-786 -137,-88 -326,-90 -435,-4 -11,9 7,4 40,-12 51,-23 73,-27 150,-27 78,0 98,4 150,28 219,103 409,397 510,791 34,133 66,320 64,372 -1,16 -7,-11 -14,-61 -72,-519 -290,-937 -560,-1070 -74,-36 -86,-39 -165,-40 -83,0 -156,18 -144,36 3,5 -1,6 -9,4 -7,-3 -25,5 -40,19 -15,14 -27,22 -27,19 0,-13 -37,27 -87,95 -92,124 -150,272 -188,479 -23,121 -31,442 -16,585 63,580 302,1057 608,1212 95,48 210,59 299,29 z M 3296,1461 c 118,-60 134,-87 46,-77 -31,4 -65,7 -75,7 -10,0 -15,5 -11,11 4,7 2,8 -4,4 -7,-4 -21,2 -33,13 -12,11 -26,18 -31,15 -5,-3 -7,-2 -6,3 2,4 -15,26 -37,48 -37,37 -65,82 -65,105 0,6 27,-10 59,-35 32,-25 103,-67 157,-94 z"
       id="path3059"
       inkscape:connector-curvature="0" />
    <path
       d="m 3445,3966 c -61,-19 -107,-45 -135,-75 -14,-15 -23,-22 -20,-16 3,6 -5,-1 -17,-15 -13,-14 -23,-21 -23,-17 0,4 -6,2 -14,-5 -8,-7 -12,-16 -10,-19 7,-12 -28,-49 -39,-43 -7,4 -9,4 -5,-1 4,-4 -10,-30 -31,-59 -52,-70 -105,-171 -157,-298 -44,-107 -114,-334 -114,-366 1,-9 16,35 35,98 81,280 180,465 325,611 114,116 249,174 353,151 25,-5 57,-7 70,-5 14,3 28,-1 32,-7 5,-9 1,-10 -16,-5 -14,4 -3,-7 24,-25 140,-95 238,-287 284,-560 23,-134 22,-430 0,-580 -34,-222 -101,-450 -177,-600 -73,-144 -213,-319 -277,-347 -18,-7 -33,-17 -33,-21 0,-26 -175,-75 -236,-65 -151,24 -273,153 -350,373 -19,52 -34,87 -34,78 0,-35 70,-212 110,-277 60,-99 155,-192 180,-176 5,3 18,1 27,-5 15,-9 14,-10 -6,-4 -14,4 -21,2 -18,-4 13,-19 98,-35 163,-29 364,29 684,669 684,1367 0,196 -17,338 -56,480 -31,112 -99,264 -114,255 -5,-3 -7,0 -4,8 7,20 -76,119 -133,156 -85,57 -183,74 -268,47 z"
       id="path3061"
       inkscape:connector-curvature="0" />
    <path
       d="m 3431,3850 c -92,-33 -177,-105 -262,-220 -94,-127 -233,-463 -253,-610 -3,-25 5,-3 19,48 71,265 212,527 352,652 28,25 81,61 119,80 60,31 77,35 144,35 63,0 82,-4 120,-26 25,-15 54,-37 65,-50 18,-21 17,-21 -15,3 -72,53 -98,61 -185,56 -72,-4 -88,-8 -141,-40 -74,-46 -106,-73 -96,-83 4,-5 2,-5 -4,-2 -16,9 -151,-186 -207,-299 -43,-86 -117,-282 -117,-307 1,-7 20,40 44,104 24,64 63,154 87,200 43,82 141,222 175,250 10,8 -5,-15 -33,-51 -95,-123 -173,-278 -233,-465 -38,-119 -72,-282 -65,-306 3,-9 1,-77 -5,-152 -41,-505 141,-897 405,-875 101,8 217,86 309,207 50,66 111,171 99,171 -4,0 -16,-18 -27,-40 -10,-21 -23,-38 -29,-37 -5,1 -11,-6 -12,-17 -5,-28 -82,-106 -149,-152 -46,-31 -123,-54 -175,-53 -44,1 -43,2 16,10 34,4 78,15 98,25 58,27 49,33 -13,8 -105,-43 -202,-23 -284,60 -240,244 -212,903 59,1360 63,107 197,242 278,282 52,25 71,29 145,29 136,0 177,-37 234,-209 17,-52 16,-77 -2,-29 -29,79 -125,175 -195,194 -71,19 -181,-12 -243,-69 -17,-15 -23,-22 -15,-16 9,7 41,25 71,40 45,24 67,29 125,29 78,-1 113,-15 165,-66 44,-44 78,-101 101,-167 26,-75 17,-78 -10,-3 -32,89 -94,166 -158,197 -45,23 -63,26 -112,21 -56,-5 -123,-31 -169,-68 -13,-10 -22,-20 -20,-22 2,-3 -17,-26 -42,-53 -128,-137 -252,-398 -295,-620 -23,-120 -17,-132 10,-19 60,261 165,467 306,605 89,87 172,130 251,130 67,0 100,-14 143,-60 l 30,-32 -48,33 c -44,31 -56,34 -115,34 -69,-1 -170,-35 -158,-54 3,-5 -7,-16 -22,-25 l -27,-17 24,20 c 13,12 18,21 13,21 -6,0 -23,-16 -38,-35 -14,-19 -31,-32 -38,-28 -6,3 -8,3 -4,-1 4,-5 -23,-47 -59,-94 -37,-48 -88,-132 -115,-188 -48,-100 -91,-214 -84,-221 2,-2 13,25 26,59 66,182 183,356 300,448 32,24 24,14 -26,-35 -39,-39 -92,-102 -117,-141 -92,-145 -179,-363 -182,-459 -1,-27 -8,-95 -15,-150 -31,-253 38,-493 160,-555 88,-45 198,-16 301,78 53,48 133,156 160,215 6,14 16,24 22,20 6,-3 7,-1 3,5 -4,7 2,29 13,50 33,61 69,158 90,245 30,124 31,126 26,71 -3,-27 -19,-104 -36,-170 -38,-149 -44,-180 -24,-129 20,51 59,207 77,305 21,118 18,513 -5,619 -31,144 -85,280 -143,361 -18,26 -30,51 -26,55 4,5 2,5 -4,2 -11,-6 -40,18 -45,38 -2,6 -10,9 -17,7 -8,-2 -11,1 -8,6 3,5 -2,16 -11,23 -14,12 -16,12 -8,0 6,-11 4,-13 -11,-6 -96,39 -154,43 -233,15 z m 344,-490 c -3,-5 -13,-10 -21,-10 -8,0 -14,-6 -14,-12 0,-7 -26,-28 -58,-45 -59,-34 -144,-103 -127,-103 6,0 21,10 35,23 33,30 88,63 120,71 14,4 1,-7 -27,-24 -61,-36 -156,-127 -178,-170 -9,-17 -20,-30 -25,-30 -6,0 -10,-4 -10,-10 0,-5 -15,-33 -34,-62 -70,-111 -164,-338 -153,-371 2,-7 7,4 12,23 28,130 145,339 254,453 75,78 189,157 227,157 11,0 -3,-13 -36,-32 -68,-38 -150,-107 -150,-124 0,-7 -6,-17 -13,-21 -24,-14 -130,-165 -170,-241 -36,-69 -88,-203 -87,-226 1,-6 14,23 29,64 31,83 71,164 95,195 9,11 1,-10 -19,-46 -125,-234 -150,-509 -59,-641 34,-48 70,-68 126,-68 64,0 73,-11 32,-39 -44,-31 -120,-39 -161,-18 -61,32 -110,104 -139,207 -7,25 -13,38 -13,30 -1,-18 37,-159 47,-175 4,-6 -1,-3 -10,7 -9,10 -27,49 -40,86 -21,60 -23,84 -23,242 1,149 4,189 24,268 27,111 88,264 136,345 19,32 35,60 35,63 0,7 34,47 101,117 55,57 73,69 103,72 l 37,4 -46,-41 c -25,-22 -50,-49 -56,-60 -6,-12 6,-4 26,16 44,45 131,102 183,121 46,17 55,18 47,5 z m 73,-228 c 21,-14 6,-33 -83,-107 -46,-38 -86,-76 -90,-84 -5,-12 -3,-12 12,0 10,8 24,20 31,27 8,7 28,20 44,28 19,10 -12,-27 -79,-92 -171,-169 -258,-325 -284,-504 -11,-74 -10,-92 5,-142 10,-35 29,-71 50,-92 29,-31 31,-36 13,-36 -38,0 -84,39 -105,88 -68,159 -9,422 148,654 115,171 279,297 338,260 z m -63,-215 c -75,-60 -177,-162 -222,-222 -54,-70 -115,-197 -133,-274 -16,-69 -8,-179 15,-214 10,-15 15,-30 12,-33 -9,-9 -47,81 -53,126 -13,99 48,276 140,404 54,76 152,175 213,215 61,40 79,39 28,-2 z m -5,-160 c 0,-1 -45,-49 -100,-106 -137,-141 -209,-266 -211,-365 0,-36 -1,-38 -10,-17 -16,40 12,157 58,241 45,83 166,212 221,237 27,12 42,16 42,10 z"
       id="path3063"
       inkscape:connector-curvature="0" />
    <path
       d="m 4097,4126 c -4,-10 -1,-19 8,-22 8,-4 12,-10 9,-15 -3,-5 -1,-9 4,-9 6,0 9,-6 9,-12 -1,-7 13,-43 30,-80 77,-161 143,-435 164,-683 14,-169 6,-491 -16,-655 -59,-429 -199,-817 -383,-1065 -57,-77 -201,-219 -244,-241 -18,-9 -40,-22 -48,-29 -55,-45 -300,-99 -300,-67 0,6 -7,9 -15,6 -8,-3 -37,2 -64,11 -109,36 -243,149 -319,268 -77,122 -84,132 -78,113 15,-44 105,-182 155,-238 125,-138 233,-190 395,-191 152,-1 264,52 406,193 539,534 708,1887 332,2654 -28,58 -40,75 -45,62 z"
       id="path3065"
       inkscape:connector-curvature="0" />
  </g>
</svg>
